<?xml version="1.0" encoding="UTF-8"?>
<svg width="468px" height="42px" viewBox="0 0 468 42" version="1.1" xmlns="http://www.w3.org/2000/svg" xmlns:xlink="http://www.w3.org/1999/xlink">
    <!-- Generator: Sketch 57 (83077) - https://sketch.com -->
    <title>Group 38</title>
    <desc>Created with Sketch.</desc>
    <defs>
        <polygon id="path-1" points="0.0001 0.311 20.8441 0.311 20.8441 32.4804 0.0001 32.4804"></polygon>
        <polygon id="path-3" points="0.0658 0.311 19.0658 0.311 19.0658 31.9587 0.0658 31.9587"></polygon>
        <polygon id="path-5" points="0 42 467.825 42 467.825 0.311 0 0.311"></polygon>
    </defs>
    <g id="Symbols" stroke="none" stroke-width="1" fill="none" fill-rule="evenodd">
        <g id="Components/Footer" transform="translate(-726.000000, -143.000000)">
            <g id="Group-38" transform="translate(726.000000, 142.000000)">
                <polygon id="Fill-1" fill="#F1F1F1" points="130.614 32.6481 135.453 32.6481 135.453 1.0001 130.614 1.0001"></polygon>
                <polygon id="Fill-2" fill="#F1F1F1" points="260.999 32.6481 262.926 32.6481 262.926 1.0001 260.999 1.0001"></polygon>
                <g id="Group-37" transform="translate(0.000000, 0.689100)">
                    <path d="M151.584,28.5353 C149.685,28.5353 148.191,27.9093 147.101,26.6563 C146.012,25.4033 145.467,23.6373 145.467,21.3543 C145.467,19.0153 146.008,17.2073 147.09,15.9263 C148.173,14.6463 149.657,14.0063 151.542,14.0063 C153.386,14.0063 154.835,14.6183 155.889,15.8423 C156.943,17.0673 157.471,18.8633 157.471,21.2293 C157.471,26.0993 155.508,28.5353 151.584,28.5353 M151.814,10.0603 C148.282,10.0603 145.502,11.0793 143.477,13.1183 C141.453,15.1583 140.44,17.9583 140.44,21.5213 C140.44,24.8753 141.42,27.5403 143.383,29.5163 C145.345,31.4933 147.98,32.4803 151.291,32.4803 C154.727,32.4803 157.453,31.4443 159.471,29.3703 C161.49,27.2973 162.499,24.5263 162.499,21.0623 C162.499,17.6663 161.556,14.9823 159.67,13.0143 C157.785,11.0453 155.167,10.0603 151.814,10.0603" id="Fill-3" fill="#F1F1F1"></path>
                    <path d="M209.0459,19.0578 C209.3109,17.4708 209.9299,16.2038 210.8999,15.2578 C211.8709,14.3128 212.9979,13.8378 214.2829,13.8378 C217.3139,13.8378 218.8299,15.5788 218.8299,19.0578 L209.0459,19.0578 Z M214.2829,10.0608 C211.4759,10.0608 209.0739,11.0858 207.0779,13.1398 C205.0799,15.1918 204.0809,17.9718 204.0809,21.4798 C204.0809,24.9308 204.9749,27.6268 206.7629,29.5688 C208.5499,31.5098 211.0709,32.4808 214.3259,32.4808 C217.3979,32.4808 219.9329,31.8828 221.9289,30.6858 L221.9289,26.6158 C219.9879,27.9788 217.8449,28.6608 215.4999,28.6608 C211.4339,28.6608 209.2839,26.6708 209.0459,22.6908 L223.6479,22.6908 L223.6479,20.2888 C223.6479,17.1158 222.8299,14.6188 221.1969,12.7948 C219.5629,10.9718 217.2579,10.0608 214.2829,10.0608 L214.2829,10.0608 Z" id="Fill-5" fill="#F1F1F1"></path>
                    <path d="M114.6733,28.5353 C112.7733,28.5353 111.2793,27.9093 110.1903,26.6563 C109.1013,25.4033 108.5563,23.6373 108.5563,21.3543 C108.5563,19.0153 109.0973,17.2073 110.1793,15.9263 C111.2623,14.6463 112.7453,14.0063 114.6313,14.0063 C116.4753,14.0063 117.9233,14.6183 118.9773,15.8423 C120.0323,17.0673 120.5593,18.8633 120.5593,21.2293 C120.5593,26.0993 118.5973,28.5353 114.6733,28.5353 M114.9033,10.0603 C111.3703,10.0603 108.5903,11.0793 106.5663,13.1183 C104.5413,15.1583 103.5283,17.9583 103.5283,21.5213 C103.5283,24.8753 104.5093,27.5403 106.4713,29.5163 C108.4343,31.4933 111.0693,32.4803 114.3803,32.4803 C117.8153,32.4803 120.5423,31.4443 122.5603,29.3703 C124.5783,27.2973 125.5873,24.5263 125.5873,21.0623 C125.5873,17.6663 124.6443,14.9823 122.7593,13.0143 C120.8733,11.0453 118.2553,10.0603 114.9033,10.0603" id="Fill-7" fill="#F1F1F1"></path>
                    <path d="M192.5385,10.0607 C189.3685,10.0607 186.9665,11.4587 185.3325,14.2557 C184.8855,12.9487 184.1135,11.9207 183.0175,11.1757 C181.9215,10.4317 180.6615,10.0607 179.2355,10.0607 C176.2615,10.0607 173.9985,11.3337 172.4495,13.8797 L172.3645,13.8797 L172.3645,10.5817 L167.5265,10.5817 L167.5265,31.9587 L172.3645,31.9587 L172.3645,19.9557 C172.3645,18.1877 172.7875,16.7547 173.6325,15.6547 C174.4775,14.5557 175.5555,14.0057 176.8695,14.0057 C179.6765,14.0057 181.0805,15.8287 181.0805,19.4747 L181.0805,31.9587 L185.9195,31.9587 L185.9195,19.9557 C185.9195,18.3127 186.3515,16.9117 187.2175,15.7487 C188.0835,14.5867 189.1515,14.0057 190.4225,14.0057 C192.0145,14.0057 193.1215,14.4897 193.7435,15.4567 C194.3655,16.4237 194.6755,17.9027 194.6755,19.8927 L194.6755,31.9587 L199.5355,31.9587 L199.5355,18.7457 C199.5355,12.9557 197.2035,10.0607 192.5385,10.0607" id="Fill-9" fill="#F1F1F1"></path>
                    <path d="M248.8691,25.7169 C248.7301,26.1899 248.6101,26.9009 248.5141,27.8459 L248.3891,27.8459 C248.2751,26.7469 248.1791,26.0369 248.0941,25.7169 L244.0521,10.5809 L239.4231,10.5809 L235.0021,25.5919 C234.8341,26.1759 234.7081,26.9009 234.6241,27.7629 L234.4991,27.7629 C234.4151,26.8719 234.3091,26.1759 234.1841,25.6749 L230.3721,10.5809 L225.3451,10.5809 L231.6501,31.9589 L236.7201,31.9589 L240.9301,17.7219 C241.0841,17.1929 241.2231,16.4689 241.3491,15.5499 L241.4321,15.5499 C241.5441,16.5799 241.6631,17.3179 241.7891,17.7629 L245.7271,31.9589 L250.8801,31.9589 L257.1861,10.5809 L252.5151,10.5809 L248.8691,25.7169 Z" id="Fill-11" fill="#F1F1F1"></path>
                    <g id="Group-15">
                        <mask id="mask-2" fill="white">
                            <use xlink:href="#path-1"></use>
                        </mask>
                        <g id="Clip-14"></g>
                        <path d="M14.2871,26.4894 C13.2671,27.8534 11.8361,28.5354 9.9931,28.5354 C8.5121,28.5354 7.2761,28.0164 6.2851,26.9804 C5.2931,25.9434 4.7981,24.6664 4.7981,23.1494 L4.7981,20.3314 C4.7981,18.4794 5.3211,16.9634 6.3691,15.7804 C7.4161,14.5974 8.7781,14.0064 10.4541,14.0064 C12.1301,14.0064 13.4431,14.5934 14.3921,15.7694 C15.3411,16.9464 15.8161,18.5634 15.8161,20.6234 C15.8161,23.1694 15.3071,25.1264 14.2871,26.4894 M12.0461,10.0604 C8.9881,10.0604 6.6131,11.3754 4.9231,14.0064 L4.8391,14.0064 L4.8391,0.3104 L0.0001,0.3104 L0.0001,31.9594 L4.8391,31.9594 L4.8391,29.2664 L4.9231,29.2664 C6.3621,31.4104 8.3941,32.4804 11.0191,32.4804 C14.0491,32.4804 16.4451,31.4054 18.2041,29.2554 C19.9641,27.1054 20.8441,24.2564 20.8441,20.7064 C20.8441,17.4914 20.0761,14.9144 18.5401,12.9724 C17.0031,11.0314 14.8391,10.0604 12.0461,10.0604" id="Fill-13" fill="#F1F1F1" mask="url(#mask-2)"></path>
                    </g>
                    <path d="M36.8491,23.4836 C36.8491,24.9596 36.3811,26.1896 35.4461,27.1776 C34.5091,28.1666 33.3221,28.6606 31.8841,28.6606 C30.8231,28.6606 29.9631,28.3796 29.3071,27.8146 C28.6511,27.2526 28.3231,26.5246 28.3231,25.6336 C28.3231,24.5476 28.6131,23.7446 29.1931,23.2216 C29.7711,22.7016 30.7811,22.3486 32.2201,22.1686 L36.8491,21.5636 L36.8491,23.4836 Z M33.2871,10.0606 C32.0451,10.0606 30.6651,10.2546 29.1501,10.6446 C27.6341,11.0346 26.4731,11.4726 25.6621,11.9606 L25.6621,16.2186 C27.8271,14.6316 30.2021,13.8376 32.7851,13.8376 C35.4941,13.8376 36.8491,15.2926 36.8491,18.2016 L30.5861,19.0576 C25.9071,19.6286 23.5681,21.9876 23.5681,26.1346 C23.5681,28.0696 24.1751,29.6096 25.3901,30.7576 C26.6051,31.9066 28.2671,32.4806 30.3761,32.4806 C33.1131,32.4806 35.2291,31.3266 36.7231,29.0156 L36.8071,29.0156 L36.8071,31.9596 L41.5841,31.9596 L41.5841,18.4096 C41.5841,12.8436 38.8181,10.0606 33.2871,10.0606 L33.2871,10.0606 Z" id="Fill-16" fill="#F1F1F1"></path>
                    <path d="M70.4082,4.174 L65.5482,5.654 L65.5482,10.581 L61.9882,10.581 L61.9882,14.465 L65.5482,14.465 L65.5482,25.717 C65.5482,30.226 67.6502,32.481 71.8532,32.481 C73.3632,32.481 74.6052,32.236 75.5832,31.75 L75.5832,27.888 C74.9132,28.32 74.2002,28.535 73.4462,28.535 C72.3982,28.535 71.6302,28.253 71.1422,27.69 C70.6532,27.126 70.4082,26.17 70.4082,24.82 L70.4082,14.465 L75.5832,14.465 L75.5832,10.581 L70.4082,10.581 L70.4082,4.174 Z" id="Fill-18" fill="#F1F1F1"></path>
                    <path d="M52.0371,14.7365 L51.9531,14.7365 L51.9531,10.5815 L47.1141,10.5815 L47.1141,31.9595 L51.9531,31.9595 L51.9531,21.0195 C51.9531,19.0985 52.3901,17.5415 53.2631,16.3435 C54.1351,15.1475 55.2691,14.5485 56.6671,14.5485 C57.7411,14.5485 58.6771,14.7925 59.4741,15.2795 L59.4741,10.4985 C59.0271,10.3035 58.3771,10.2055 57.5251,10.2055 C54.8991,10.2055 53.0701,11.7165 52.0371,14.7365" id="Fill-20" fill="#F1F1F1"></path>
                    <g id="Group-24" transform="translate(80.000000, 0.000000)">
                        <mask id="mask-4" fill="white">
                            <use xlink:href="#path-3"></use>
                        </mask>
                        <g id="Clip-23"></g>
                        <path d="M11.8178,10.0607 C8.8718,10.0607 6.5938,11.3467 4.9878,13.9217 L4.9048,13.9217 L4.9048,0.3107 L0.0658,0.3107 L0.0658,31.9587 L4.9048,31.9587 L4.9048,19.7257 C4.9048,18.1107 5.3768,16.7547 6.3198,15.6547 C7.2618,14.5557 8.4808,14.0057 9.9748,14.0057 C12.7678,14.0057 14.1648,15.9547 14.1648,19.8507 L14.1648,31.9587 L19.0658,31.9587 L19.0658,18.8287 C19.0658,15.9757 18.4438,13.8007 17.2018,12.3037 C15.9588,10.8087 14.1648,10.0607 11.8178,10.0607" id="Fill-22" fill="#F1F1F1" mask="url(#mask-4)"></path>
                    </g>
                    <mask id="mask-6" fill="white">
                        <use xlink:href="#path-5"></use>
                    </mask>
                    <g id="Clip-26"></g>
                    <polygon id="Fill-25" fill="#F1F1F1" mask="url(#mask-6)" points="418.909 31.959 420.836 31.959 420.836 10.581 418.909 10.581"></polygon>
                    <path d="M437.0508,10.0607 C433.7268,10.0607 431.2828,11.5287 429.7188,14.4647 L429.6348,14.4647 L429.6348,10.5817 L427.7078,10.5817 L427.7078,31.9587 L429.6348,31.9587 L429.6348,19.6837 C429.6348,17.4577 430.2978,15.5887 431.6248,14.0787 C432.9518,12.5687 434.6488,11.8137 436.7158,11.8137 C440.4298,11.8137 442.2878,14.3807 442.2878,19.5167 L442.2878,31.9587 L444.2148,31.9587 L444.2148,18.9537 C444.2148,16.1007 443.6008,13.9047 442.3708,12.3667 C441.1428,10.8297 439.3688,10.0607 437.0508,10.0607" id="Fill-27" fill="#F1F1F1" mask="url(#mask-6)"></path>
                    <path d="M419.8525,2.0226 C419.4465,2.0226 419.0805,2.1666 418.7525,2.4506 C418.4245,2.7356 418.2595,3.1086 418.2595,3.5676 C418.2595,4.0416 418.4195,4.4306 418.7415,4.7366 C419.0625,5.0436 419.4325,5.1966 419.8525,5.1966 C420.2985,5.1966 420.6825,5.0366 421.0035,4.7156 C421.3255,4.3956 421.4855,4.0126 421.4855,3.5676 C421.4855,3.0946 421.3225,2.7186 420.9935,2.4406 C420.6645,2.1626 420.2855,2.0226 419.8525,2.0226" id="Fill-28" fill="#F1F1F1" mask="url(#mask-6)"></path>
                    <path d="M386.5019,22.5431 C386.5019,24.9521 385.8169,26.9171 384.4479,28.4401 C383.0799,29.9651 381.3619,30.7271 379.2949,30.7271 C377.7869,30.7271 376.6099,30.3161 375.7659,29.4951 C374.9209,28.6741 374.4979,27.6301 374.4979,26.3641 C374.4979,24.7501 374.9519,23.5841 375.8599,22.8671 C376.7679,22.1501 378.3449,21.6331 380.5949,21.3131 L386.5019,20.4561 L386.5019,22.5431 Z M381.4959,10.0611 C380.2939,10.0611 379.0129,10.2821 377.6509,10.7281 C376.2889,11.1731 375.2109,11.7091 374.4139,12.3361 L374.4139,14.6521 C376.6479,12.7601 378.9459,11.8141 381.3059,11.8141 C384.7699,11.8141 386.5019,14.1101 386.5019,18.7031 L379.9029,19.6841 C374.9439,20.4631 372.4669,22.7191 372.4669,26.4481 C372.4669,28.1881 373.0599,29.6281 374.2459,30.7701 C375.4339,31.9111 377.0469,32.4811 379.0859,32.4811 C380.6779,32.4811 382.1269,32.0451 383.4339,31.1761 C384.7379,30.3071 385.7339,29.1421 386.4179,27.6791 L386.5019,27.6791 L386.5019,31.9591 L388.4289,31.9591 L388.4289,18.0561 C388.4289,15.4531 387.8249,13.4701 386.6169,12.1051 C385.4079,10.7411 383.7009,10.0611 381.4959,10.0611 L381.4959,10.0611 Z" id="Fill-29" fill="#F1F1F1" mask="url(#mask-6)"></path>
                    <path d="M409.5234,27.9201 C408.1554,29.7911 406.3754,30.7271 404.1824,30.7271 C401.9744,30.7271 400.1954,29.9581 398.8394,28.4211 C397.4854,26.8831 396.8084,25.0421 396.8084,22.8991 L396.8084,20.2051 C396.8084,17.9511 397.4934,15.9881 398.8624,14.3181 C400.2294,12.6481 402.1654,11.8141 404.6644,11.8141 C406.7594,11.8141 408.4344,12.6001 409.6914,14.1731 C410.9494,15.7451 411.5774,17.8671 411.5774,20.5401 C411.5774,23.5881 410.8924,26.0481 409.5234,27.9201 M404.9154,10.0611 C403.1974,10.0611 401.6234,10.4881 400.1924,11.3441 C398.7594,12.2001 397.6604,13.4141 396.8924,14.9871 L396.8084,14.9871 L396.8084,10.5811 L394.8814,10.5811 L394.8814,41.7911 L396.8084,41.7911 L396.8084,28.1591 L396.8924,28.1591 C398.4284,31.0411 400.8024,32.4811 404.0144,32.4811 C406.8904,32.4811 409.2074,31.3781 410.9604,29.1721 C412.7114,26.9671 413.5884,24.0751 413.5884,20.4981 C413.5884,17.2821 412.8234,14.7391 411.2944,12.8671 C409.7654,10.9961 407.6384,10.0611 404.9154,10.0611" id="Fill-30" fill="#F1F1F1" mask="url(#mask-6)"></path>
                    <path d="M465.8965,23.0236 C465.8965,25.1816 465.2115,27.0036 463.8445,28.4936 C462.4755,29.9826 460.6385,30.7266 458.3345,30.7266 C456.1685,30.7266 454.4275,29.9166 453.1075,28.2956 C451.7885,26.6736 451.1275,24.4016 451.1275,21.4796 C451.1275,18.5706 451.8465,16.2326 453.2865,14.4646 C454.7235,12.6976 456.6245,11.8136 458.9835,11.8136 C461.0375,11.8136 462.7035,12.5026 463.9795,13.8796 C465.2575,15.2576 465.8965,16.8936 465.8965,18.7866 L465.8965,23.0236 Z M465.8965,13.9636 L465.8125,13.9636 C464.3885,11.3616 462.0975,10.0606 458.9415,10.0606 C455.9955,10.0606 453.6215,11.1386 451.8195,13.2956 C450.0185,15.4536 449.1175,18.2356 449.1175,21.6466 C449.1175,25.0556 449.9515,27.7136 451.6205,29.6206 C453.2895,31.5286 455.4445,32.4806 458.0835,32.4806 C461.5455,32.4806 464.1235,31.0256 465.8125,28.1176 L465.8965,28.1176 L465.8965,30.8946 C465.8965,37.1286 462.9355,40.2466 457.0145,40.2466 C454.9895,40.2466 452.8455,39.6206 450.5835,38.3686 L450.5835,40.3726 C452.7765,41.4576 454.9065,42.0006 456.9735,42.0006 C460.6875,42.0006 463.4245,41.0686 465.1845,39.2036 C466.9445,37.3366 467.8245,34.3936 467.8245,30.3726 L467.8245,10.5816 L465.8965,10.5816 L465.8965,13.9636 Z" id="Fill-31" fill="#F1F1F1" mask="url(#mask-6)"></path>
                    <path d="M282.6181,22.5431 C282.6181,24.9521 281.9331,26.9171 280.5641,28.4401 C279.1961,29.9651 277.4771,30.7271 275.4111,30.7271 C273.9031,30.7271 272.7261,30.3161 271.8821,29.4951 C271.0361,28.6741 270.6141,27.6301 270.6141,26.3641 C270.6141,24.7501 271.0681,23.5841 271.9761,22.8671 C272.8841,22.1501 274.4611,21.6331 276.7101,21.3131 L282.6181,20.4561 L282.6181,22.5431 Z M277.6101,10.0611 C276.4101,10.0611 275.1291,10.2821 273.7671,10.7281 C272.4051,11.1731 271.3271,11.7091 270.5311,12.3361 L270.5311,14.6521 C272.7641,12.7601 275.0621,11.8141 277.4221,11.8141 C280.8861,11.8141 282.6181,14.1101 282.6181,18.7031 L276.0181,19.6841 C271.0601,20.4631 268.5821,22.7191 268.5821,26.4481 C268.5821,28.1881 269.1761,29.6281 270.3631,30.7701 C271.5501,31.9111 273.1631,32.4811 275.2021,32.4811 C276.7951,32.4811 278.2431,32.0451 279.5491,31.1761 C280.8541,30.3071 281.8491,29.1421 282.5341,27.6791 L282.6181,27.6791 L282.6181,31.9591 L284.5451,31.9591 L284.5451,18.0561 C284.5451,15.4531 283.9411,13.4701 282.7321,12.1051 C281.5251,10.7411 279.8171,10.0611 277.6101,10.0611 L277.6101,10.0611 Z" id="Fill-32" fill="#F1F1F1" mask="url(#mask-6)"></path>
                    <path d="M300.3408,10.0607 C297.0168,10.0607 294.5718,11.5287 293.0088,14.4647 L292.9248,14.4647 L292.9248,10.5817 L290.9968,10.5817 L290.9968,31.9587 L292.9248,31.9587 L292.9248,19.6837 C292.9248,17.4577 293.5878,15.5887 294.9148,14.0787 C296.2408,12.5687 297.9388,11.8137 300.0048,11.8137 C303.7198,11.8137 305.5768,14.3807 305.5768,19.5167 L305.5768,31.9587 L307.5048,31.9587 L307.5048,18.9537 C307.5048,16.1007 306.8898,13.9047 305.6618,12.3667 C304.4318,10.8297 302.6578,10.0607 300.3408,10.0607" id="Fill-33" fill="#F1F1F1" mask="url(#mask-6)"></path>
                    <path d="M329.1865,22.9406 C329.1865,25.1116 328.5155,26.9526 327.1745,28.4616 C325.8345,29.9716 323.9425,30.7266 321.4985,30.7266 C319.4165,30.7266 317.7165,29.9236 316.3975,28.3166 C315.0775,26.7086 314.4175,24.4296 314.4175,21.4796 C314.4175,18.4726 315.1505,16.1116 316.6175,14.3916 C318.0835,12.6736 319.9415,11.8136 322.1895,11.8136 C324.3265,11.8136 326.0275,12.5056 327.2905,13.8906 C328.5545,15.2756 329.1865,16.9626 329.1865,18.9536 L329.1865,22.9406 Z M329.1865,14.0056 L329.1025,14.0056 C327.7335,11.3756 325.4435,10.0606 322.2325,10.0606 C319.3265,10.0606 316.9625,11.1276 315.1405,13.2646 C313.3185,15.4016 312.4065,18.1946 312.4065,21.6466 C312.4065,25.0286 313.2405,27.6786 314.9105,29.5996 C316.5795,31.5206 318.7335,32.4806 321.3735,32.4806 C323.0895,32.4806 324.6335,32.0856 326.0025,31.2916 C327.3715,30.4976 328.4045,29.4256 329.1025,28.0766 L329.1865,28.0766 L329.1865,31.9596 L331.1145,31.9596 L331.1145,0.3106 L329.1865,0.3106 L329.1865,14.0056 Z" id="Fill-34" fill="#F1F1F1" mask="url(#mask-6)"></path>
                    <path d="M356.1054,13.3068 C354.0944,15.4708 353.0874,18.2508 353.0874,21.6468 C353.0874,24.8748 353.9824,27.4878 355.7704,29.4848 C357.5574,31.4828 359.9114,32.4808 362.8304,32.4808 C365.0374,32.4808 366.9354,31.9938 368.5274,31.0198 L368.5274,29.0158 C366.9354,30.1568 365.0634,30.7268 362.9134,30.7268 C360.5674,30.7268 358.6774,29.8858 357.2474,28.2018 C355.8154,26.5178 355.0994,24.2908 355.0994,21.5218 C355.0994,18.6538 355.8814,16.3208 357.4464,14.5168 C359.0094,12.7148 361.0484,11.8138 363.5634,11.8138 C365.3924,11.8138 367.0754,12.2868 368.6124,13.2328 L368.6124,11.0628 C367.0754,10.3938 365.4904,10.0608 363.8564,10.0608 C360.7004,10.0608 358.1164,11.1428 356.1054,13.3068" id="Fill-35" fill="#F1F1F1" mask="url(#mask-6)"></path>
                    <path d="M343.3896,20.4142 C341.5326,19.5942 340.3306,18.8662 339.7866,18.2322 C339.2426,17.6012 338.9686,16.7752 338.9686,15.7592 C338.9686,14.5902 339.4026,13.6412 340.2686,12.9092 C341.1336,12.1782 342.2726,11.8132 343.6826,11.8132 C345.3866,11.8132 347.0356,12.3292 348.6256,13.3572 L348.6256,11.1872 C347.3136,10.4352 345.7356,10.0602 343.8926,10.0602 C341.9366,10.0602 340.2916,10.5962 338.9586,11.6682 C337.6246,12.7392 336.9586,14.1452 336.9586,15.8842 C336.9586,17.2492 337.3726,18.4062 338.2046,19.3602 C339.0356,20.3132 340.4776,21.2362 342.5316,22.1262 C344.1926,22.8362 345.3936,23.5242 346.1336,24.1932 C346.8736,24.8602 347.2436,25.6692 347.2436,26.6152 C347.2436,29.3562 345.5606,30.7272 342.1956,30.7272 C341.4416,30.7272 340.5476,30.5472 339.5136,30.1852 C338.4796,29.8222 337.6006,29.3282 336.8736,28.7022 L336.8736,31.0192 C338.2576,31.9932 339.9816,32.4802 342.0486,32.4802 C344.2966,32.4802 346.0616,31.9272 347.3386,30.8212 C348.6166,29.7152 349.2556,28.3122 349.2556,26.6152 C349.2556,25.1942 348.8366,24.0582 347.9976,23.2022 C347.1606,22.3462 345.6236,21.4162 343.3896,20.4142" id="Fill-36" fill="#F1F1F1" mask="url(#mask-6)"></path>
                </g>
            </g>
        </g>
    </g>
</svg>