<svg xmlns="http://www.w3.org/2000/svg" width="46" height="46" viewBox="0 0 46 46">
    <g fill="none" fill-rule="evenodd">
        <path fill="#01013A" d="M26.654 18.16c-.018.62.5 1.163 1.128 1.184a1.176 1.176 0 0 0 1.214-1.149c.019-.626-.502-1.163-1.145-1.18a1.173 1.173 0 0 0-1.197 1.146m-3.662 7.876a3.042 3.042 0 0 0 3.04-3.036 3.04 3.04 0 0 0-3.035-3.04 3.04 3.04 0 0 0-3.04 3.035 3.04 3.04 0 0 0 3.035 3.041M27.63 23c-.002 2.55-2.1 4.646-4.642 4.637-2.552-.009-4.643-2.108-4.63-4.649.014-2.55 2.091-4.625 4.635-4.628 2.545-.003 4.64 2.094 4.637 4.64m2.765.001l-.001-3.9c0-.413-.04-.819-.18-1.21-.508-1.432-1.74-2.293-3.295-2.295-2.617-.003-5.235-.008-7.853.007-.39.003-.8.057-1.17.18-1.439.484-2.299 1.732-2.3 3.286-.005 2.618-.003 5.236 0 7.854 0 .405.044.806.182 1.191.508 1.419 1.729 2.283 3.267 2.287 2.634.006 5.268.004 7.903 0 1.18-.002 2.13-.475 2.827-1.434.442-.608.62-1.301.62-2.047v-3.919M14 27.393v-8.789c.029-.182.047-.369.089-.55.458-2.04 1.692-3.347 3.706-3.906.262-.074.538-.1.807-.148h8.785c.056.01.112.025.17.03.492.055.973.164 1.42.375 1.932.914 2.974 2.444 3.003 4.586.038 2.67.011 5.342.008 8.013 0 1.036-.28 1.995-.88 2.839-1.02 1.43-2.424 2.148-4.18 2.153-2.623.007-5.246.005-7.87-.002a4.753 4.753 0 0 1-1.012-.092c-2.037-.45-3.34-1.689-3.899-3.7-.073-.264-.1-.54-.147-.809"/>
        <circle cx="23" cy="23" r="20" stroke="#01013A" stroke-width="2"/>
    </g>
</svg>
