<?xml version="1.0" encoding="utf-8"?>
<!-- Generator: Adobe Illustrator 23.0.6, SVG Export Plug-In . SVG Version: 6.00 Build 0)  -->
<svg version="1.1" id="Layer_1" xmlns="http://www.w3.org/2000/svg" xmlns:xlink="http://www.w3.org/1999/xlink" x="0px" y="0px"
	 viewBox="0 0 105 34.2" style="enable-background:new 0 0 105 34.2;" xml:space="preserve">
<image style="overflow:visible;" width="566" height="222" xlink:href="../../../../../Desktop/Screen Shot 2019-08-14 at 13.37.22.png"  transform="matrix(0.1405 0 0 0.1405 5.63 -104.997)">
</image>
<g id="Symbols">
	<g transform="translate(-388.000000, -22.000000)">
		<g id="Nav" transform="translate(388.000000, 17.000000)">
			<g transform="translate(0.000000, 3.000000)">
				<g id="Group">
					<text transform="matrix(1 0 0 1 130 -137.7117)" style="fill:#F1F1F1; font-family:'Arial-BoldMT'; font-size:14px;">Bartholomew</text>
					<text transform="matrix(1 0 0 1 222.098 -137.7117)" style="fill:#F1F1F1; font-family:'Arial-BoldMT'; font-size:14px;"> </text>
					<text transform="matrix(1 0 0 1 130 -119.7117)" style="fill:#F1F1F1; font-family:'Arial-BoldMT'; font-size:14px;">Landscaping</text>
					<path id="Fill-1" style="fill-rule:evenodd;clip-rule:evenodd;fill:#F1F1F1;" d="M121-125.4c0,6.5-4.3,9.5-9.9,9.6
						c-0.1,0-0.2,0-0.3,0c-2.2-0.1-4.2-0.8-5.5-2.1c-1.5,1.3-4.1,2.2-4.1,1.5V-142c0-1.4-0.4-2-2.1-2.6v-0.7l6.6-1.4
						c0.4-0.1,0.7,0.2,0.7,0.6v22.8c0,4.7,2.1,6.5,4.3,6.8c0.2,0,0.4,0.1,0.7,0.1c3.1,0,4.4-2.3,4.4-8.6c0-1.6-0.1-2.9-0.3-4
						c-0.2-1-0.6-1.9-1.3-2.5c-0.9-0.7-2.3-1.3-4.4-0.8c0,0-0.2,0.3-0.3,0.8c-0.2,0.6-0.3,1.4,0.2,2.1c0,0,0,0,0,0c0,0,0,0,0.1,0.1
						c0.1,0.1,0.2,0.3,0.2,0.3l0,0c0.1,0.3,0.1,0.6-0.3,0.6c0,0-0.1,0-0.1,0c-0.8,0-4-0.2-2.2-3.2c0.1-0.1,0.1-0.2,0.2-0.3
						c0.1-0.2,0.2-0.4,0.4-0.5c0,0,0.4-0.7,1.3-1.4c0.2-0.1,0.3-0.3,0.5-0.4c0.8-0.6,1.9-1.1,3.2-1.1c0,0,2.7-0.1,5,1.8
						c0,0,0.1,0.1,0.2,0.1c0.5,0.5,1,1,1.4,1.7l0,0c0.1,0.2,0.3,0.4,0.4,0.7c0.1,0.3,0.3,0.6,0.4,0.9
						C120.7-128.6,121-127.1,121-125.4"/>
				</g>
			</g>
		</g>
	</g>
</g>
<g>
	<g>
		<rect x="27.9" y="-86.5" width="0.4" height="6.5"/>
		<rect x="60.2" y="-84.4" width="0.4" height="4.4"/>
		<path d="M60.8-85.9c0-0.1,0-0.2-0.1-0.2c-0.1-0.1-0.1-0.1-0.2-0.1c-0.1,0-0.2,0-0.2,0.1c-0.1,0.1-0.1,0.1-0.1,0.2
			c0,0.1,0,0.2,0.1,0.2c0.1,0.1,0.1,0.1,0.2,0.1c0.1,0,0.2,0,0.2-0.1C60.7-85.7,60.8-85.8,60.8-85.9z"/>
		<path d="M55.3-84.4v6.4h0.4v-2.8h0c0.3,0.6,0.8,0.9,1.5,0.9c0.6,0,1.1-0.2,1.4-0.7c0.4-0.5,0.5-1,0.5-1.8c0-0.7-0.2-1.2-0.5-1.6
			c-0.3-0.4-0.7-0.6-1.3-0.6c-0.4,0-0.7,0.1-1,0.3c-0.3,0.2-0.5,0.4-0.7,0.7h0v-0.9H55.3z M56.1-83.7c0.3-0.3,0.7-0.5,1.2-0.5
			c0.4,0,0.8,0.2,1,0.5c0.3,0.3,0.4,0.8,0.4,1.3c0,0.6-0.1,1.1-0.4,1.5c-0.3,0.4-0.6,0.6-1.1,0.6c-0.5,0-0.8-0.2-1.1-0.5
			c-0.3-0.3-0.4-0.7-0.4-1.1v-0.6C55.7-82.9,55.8-83.3,56.1-83.7z"/>
		<path d="M62-84.4v4.4h0.4v-2.5c0-0.5,0.1-0.8,0.4-1.1c0.3-0.3,0.6-0.5,1-0.5c0.8,0,1.1,0.5,1.1,1.6v2.5h0.4v-2.7
			c0-0.6-0.1-1-0.4-1.3c-0.3-0.3-0.6-0.5-1.1-0.5c-0.7,0-1.2,0.3-1.5,0.9h0v-0.8H62z"/>
		<path d="M69.8-83.7L69.8-83.7c-0.3-0.5-0.8-0.8-1.4-0.8c-0.6,0-1.1,0.2-1.5,0.7c-0.4,0.4-0.6,1-0.6,1.7c0,0.7,0.2,1.2,0.5,1.6
			c0.3,0.4,0.8,0.6,1.3,0.6c0.7,0,1.2-0.3,1.6-0.9h0v0.6c0,1.3-0.6,1.9-1.8,1.9c-0.4,0-0.9-0.1-1.3-0.4v0.4c0.4,0.2,0.9,0.3,1.3,0.3
			c0.8,0,1.3-0.2,1.7-0.6c0.4-0.4,0.5-1,0.5-1.8v-4.1h-0.4V-83.7z M69.8-81.9c0,0.4-0.1,0.8-0.4,1.1c-0.3,0.3-0.7,0.5-1.1,0.5
			c-0.4,0-0.8-0.2-1.1-0.5c-0.3-0.3-0.4-0.8-0.4-1.4c0-0.6,0.1-1.1,0.4-1.4c0.3-0.4,0.7-0.5,1.2-0.5c0.4,0,0.8,0.1,1,0.4
			c0.3,0.3,0.4,0.6,0.4,1V-81.9z"/>
		<path d="M34-84.4v4.4h0.4v-2.5c0-0.5,0.1-0.8,0.4-1.1c0.3-0.3,0.6-0.5,1-0.5c0.8,0,1.1,0.5,1.1,1.6v2.5h0.4v-2.7
			c0-0.6-0.1-1-0.4-1.3c-0.3-0.3-0.6-0.5-1.1-0.5c-0.7,0-1.2,0.3-1.5,0.9h0v-0.8H34z"/>
		<path d="M29.4-81.2c0,0.4,0.1,0.7,0.4,0.9c0.2,0.2,0.6,0.4,1,0.4c0.3,0,0.6-0.1,0.9-0.3c0.3-0.2,0.5-0.4,0.6-0.7h0v0.9h0.4v-2.8
			c0-0.5-0.1-0.9-0.4-1.2c-0.2-0.3-0.6-0.4-1-0.4c-0.2,0-0.5,0-0.8,0.1c-0.3,0.1-0.5,0.2-0.7,0.3v0.5c0.5-0.4,0.9-0.6,1.4-0.6
			c0.7,0,1.1,0.5,1.1,1.4L31-82.6C30-82.4,29.4-82,29.4-81.2z M32.3-82.4v0.4c0,0.5-0.1,0.9-0.4,1.2c-0.3,0.3-0.6,0.5-1.1,0.5
			c-0.3,0-0.5-0.1-0.7-0.3c-0.2-0.2-0.3-0.4-0.3-0.6c0-0.3,0.1-0.6,0.3-0.7c0.2-0.1,0.5-0.3,1-0.3L32.3-82.4z"/>
		<path d="M42.2-80.1v-6.5h-0.4v2.8h0c-0.3-0.5-0.7-0.8-1.4-0.8c-0.6,0-1.1,0.2-1.5,0.7c-0.4,0.4-0.6,1-0.6,1.7
			c0,0.7,0.2,1.2,0.5,1.6c0.3,0.4,0.8,0.6,1.3,0.6c0.4,0,0.7-0.1,0.9-0.2c0.3-0.2,0.5-0.4,0.6-0.7h0v0.8H42.2z M41.4-80.8
			c-0.3,0.3-0.7,0.5-1.2,0.5c-0.4,0-0.8-0.2-1-0.5c-0.3-0.3-0.4-0.8-0.4-1.4c0-0.6,0.2-1.1,0.5-1.5c0.3-0.4,0.7-0.5,1.1-0.5
			c0.4,0,0.8,0.1,1,0.4c0.3,0.3,0.4,0.6,0.4,1v0.8C41.9-81.5,41.7-81.1,41.4-80.8z"/>
		<path d="M48.9-84.2c0.4,0,0.7,0.1,1,0.3v-0.4c-0.3-0.1-0.6-0.2-1-0.2c-0.6,0-1.2,0.2-1.6,0.7c-0.4,0.4-0.6,1-0.6,1.7
			c0,0.7,0.2,1.2,0.5,1.6c0.4,0.4,0.8,0.6,1.4,0.6c0.5,0,0.8-0.1,1.2-0.3v-0.4c-0.3,0.2-0.7,0.4-1.1,0.4c-0.5,0-0.9-0.2-1.2-0.5
			c-0.3-0.3-0.4-0.8-0.4-1.4c0-0.6,0.2-1.1,0.5-1.4C48-84,48.4-84.2,48.9-84.2z"/>
		<path d="M50.7-81.2c0,0.4,0.1,0.7,0.4,0.9c0.2,0.2,0.6,0.4,1,0.4c0.3,0,0.6-0.1,0.9-0.3c0.3-0.2,0.5-0.4,0.6-0.7h0v0.9H54v-2.8
			c0-0.5-0.1-0.9-0.4-1.2c-0.2-0.3-0.6-0.4-1-0.4c-0.2,0-0.5,0-0.8,0.1c-0.3,0.1-0.5,0.2-0.7,0.3v0.5c0.5-0.4,0.9-0.6,1.4-0.6
			c0.7,0,1.1,0.5,1.1,1.4l-1.4,0.2C51.2-82.4,50.7-82,50.7-81.2z M53.6-82.4v0.4c0,0.5-0.1,0.9-0.4,1.2c-0.3,0.3-0.6,0.5-1.1,0.5
			c-0.3,0-0.5-0.1-0.7-0.3c-0.2-0.2-0.3-0.4-0.3-0.6c0-0.3,0.1-0.6,0.3-0.7c0.2-0.1,0.5-0.3,1-0.3L53.6-82.4z"/>
		<path d="M44.5-80.3c-0.2,0-0.3,0-0.5-0.1c-0.2-0.1-0.4-0.2-0.5-0.3v0.5c0.3,0.2,0.6,0.3,1.1,0.3c0.5,0,0.8-0.1,1.1-0.3
			c0.3-0.2,0.4-0.5,0.4-0.9c0-0.3-0.1-0.5-0.3-0.7c-0.2-0.2-0.5-0.4-0.9-0.6c-0.4-0.2-0.6-0.3-0.7-0.4c-0.1-0.1-0.2-0.3-0.2-0.5
			c0-0.2,0.1-0.4,0.3-0.6c0.2-0.1,0.4-0.2,0.7-0.2c0.3,0,0.7,0.1,1,0.3v-0.4c-0.3-0.2-0.6-0.2-1-0.2c-0.4,0-0.7,0.1-1,0.3
			c-0.3,0.2-0.4,0.5-0.4,0.9c0,0.3,0.1,0.5,0.3,0.7c0.2,0.2,0.5,0.4,0.9,0.6c0.3,0.1,0.6,0.3,0.7,0.4c0.2,0.1,0.2,0.3,0.2,0.5
			C45.6-80.6,45.2-80.3,44.5-80.3z"/>
	</g>
	<g>
		<path d="M62.2-92.6v4.4h1v-2.5c0-0.4,0.1-0.7,0.3-0.9c0.2-0.2,0.4-0.3,0.7-0.3c0.6,0,0.9,0.4,0.9,1.1v2.6h1v-2.5
			c0-0.3,0.1-0.6,0.3-0.9c0.2-0.2,0.4-0.4,0.7-0.4c0.3,0,0.6,0.1,0.7,0.3c0.1,0.2,0.2,0.5,0.2,0.9v2.5h1v-2.7c0-1.2-0.5-1.8-1.4-1.8
			c-0.6,0-1.1,0.3-1.5,0.9c-0.1-0.3-0.2-0.5-0.5-0.6c-0.2-0.2-0.5-0.2-0.8-0.2c-0.6,0-1.1,0.3-1.4,0.8h0v-0.7H62.2z"/>
		<path d="M60.5-88.7c0.4-0.4,0.6-1,0.6-1.7c0-0.7-0.2-1.2-0.6-1.6c-0.4-0.4-0.9-0.6-1.6-0.6c-0.7,0-1.3,0.2-1.7,0.6
			c-0.4,0.4-0.6,1-0.6,1.7c0,0.7,0.2,1.2,0.6,1.6c0.4,0.4,0.9,0.6,1.6,0.6C59.6-88.1,60.1-88.3,60.5-88.7z M57.7-90.4
			c0-0.5,0.1-0.8,0.3-1.1c0.2-0.3,0.5-0.4,0.9-0.4c0.4,0,0.7,0.1,0.9,0.4c0.2,0.3,0.3,0.6,0.3,1.1c0,1-0.4,1.5-1.2,1.5
			c-0.4,0-0.7-0.1-0.9-0.4C57.8-89.6,57.7-89.9,57.7-90.4z"/>
		<rect x="54.6" y="-94.7" width="1" height="6.5"/>
		<path d="M77.2-91.1c0-0.1,0.1-0.3,0.1-0.4h0c0,0.2,0,0.4,0.1,0.5l0.8,2.9h1.1l1.3-4.4h-1l-0.7,3.1c0,0.1-0.1,0.2-0.1,0.4h0
			c0-0.2,0-0.4-0.1-0.4l-0.8-3.1h-0.9L76-89.5c0,0.1-0.1,0.3-0.1,0.4h0c0-0.2,0-0.3-0.1-0.4l-0.8-3.1h-1l1.3,4.4h1L77.2-91.1z"/>
		<path d="M53-88.7c0.4-0.4,0.6-1,0.6-1.7c0-0.7-0.2-1.2-0.6-1.6c-0.4-0.4-0.9-0.6-1.6-0.6c-0.7,0-1.3,0.2-1.7,0.6
			c-0.4,0.4-0.6,1-0.6,1.7c0,0.7,0.2,1.2,0.6,1.6c0.4,0.4,0.9,0.6,1.6,0.6C52-88.1,52.6-88.3,53-88.7z M50.1-90.4
			c0-0.5,0.1-0.8,0.3-1.1c0.2-0.3,0.5-0.4,0.9-0.4c0.4,0,0.7,0.1,0.9,0.4c0.2,0.3,0.3,0.6,0.3,1.1c0,1-0.4,1.5-1.2,1.5
			c-0.4,0-0.7-0.1-0.9-0.4C50.2-89.6,50.1-89.9,50.1-90.4z"/>
		<path d="M73.7-90.6c0-0.6-0.2-1.2-0.5-1.5c-0.3-0.4-0.8-0.6-1.4-0.6c-0.6,0-1.1,0.2-1.5,0.6c-0.4,0.4-0.6,1-0.6,1.7
			c0,0.7,0.2,1.3,0.5,1.7c0.4,0.4,0.9,0.6,1.5,0.6c0.6,0,1.1-0.1,1.6-0.4v-0.8c-0.4,0.3-0.8,0.4-1.3,0.4c-0.8,0-1.3-0.4-1.3-1.2h3
			V-90.6z M70.7-90.9c0.1-0.3,0.2-0.6,0.4-0.8c0.2-0.2,0.4-0.3,0.7-0.3c0.6,0,0.9,0.4,0.9,1.1H70.7z"/>
		<path d="M37.5-92.6v4.4h1v-2.2c0-0.4,0.1-0.7,0.3-1c0.2-0.2,0.4-0.4,0.7-0.4c0.2,0,0.4,0,0.6,0.1v-1c-0.1,0-0.2-0.1-0.4-0.1
			c-0.5,0-0.9,0.3-1.1,0.9h0v-0.9H37.5z"/>
		<path d="M32.7-89.4c0,0.4,0.1,0.7,0.4,0.9c0.2,0.2,0.6,0.4,1,0.4c0.6,0,1-0.2,1.3-0.7h0v0.6h1V-91c0-1.1-0.6-1.7-1.7-1.7
			c-0.3,0-0.5,0-0.8,0.1c-0.3,0.1-0.5,0.2-0.7,0.3v0.9c0.4-0.3,0.9-0.5,1.5-0.5c0.6,0,0.8,0.3,0.8,0.9l-1.3,0.2
			C33.2-90.7,32.7-90.3,32.7-89.4z M35.4-90.3v0.4c0,0.3-0.1,0.6-0.3,0.8c-0.2,0.2-0.4,0.3-0.7,0.3c-0.2,0-0.4-0.1-0.5-0.2
			c-0.1-0.1-0.2-0.3-0.2-0.4c0-0.2,0.1-0.4,0.2-0.5c0.1-0.1,0.3-0.2,0.6-0.2L35.4-90.3z"/>
		<path d="M27.9-94.7v6.5h1v-0.6h0c0.3,0.4,0.7,0.7,1.2,0.7c0.6,0,1.1-0.2,1.5-0.7c0.4-0.4,0.5-1,0.5-1.8c0-0.7-0.2-1.2-0.5-1.6
			c-0.3-0.4-0.8-0.6-1.3-0.6c-0.6,0-1.1,0.3-1.5,0.8h0v-2.8H27.9z M29.2-91.5c0.2-0.2,0.5-0.4,0.8-0.4c0.3,0,0.6,0.1,0.8,0.4
			c0.2,0.2,0.3,0.6,0.3,1c0,0.5-0.1,0.9-0.3,1.2c-0.2,0.3-0.5,0.4-0.9,0.4c-0.3,0-0.6-0.1-0.8-0.3c-0.2-0.2-0.3-0.5-0.3-0.8v-0.6
			C28.9-91,29-91.3,29.2-91.5z"/>
		<path d="M41.3-93.6v1h-0.7v0.8h0.7v2.3c0,0.9,0.4,1.4,1.3,1.4c0.3,0,0.6,0,0.8-0.1v-0.8c-0.1,0.1-0.3,0.1-0.4,0.1
			c-0.2,0-0.4-0.1-0.5-0.2c-0.1-0.1-0.2-0.3-0.2-0.6v-2.1h1.1v-0.8h-1.1v-1.3L41.3-93.6z"/>
		<path d="M44.3-94.7v6.5h1v-2.5c0-0.3,0.1-0.6,0.3-0.8c0.2-0.2,0.4-0.3,0.7-0.3c0.6,0,0.9,0.4,0.9,1.2v2.5h1v-2.7
			c0-0.6-0.1-1-0.4-1.3c-0.3-0.3-0.6-0.5-1.1-0.5c-0.6,0-1.1,0.3-1.4,0.8h0v-2.8H44.3z"/>
	</g>
	<g>
		<path style="fill:#01013A;" d="M16.5-90.1c-1.5-0.4,0-2.2,0-2.2c0.4-0.2,0.9-0.2,0.9-0.2c-0.6,0.8,0.1,1.4,0.3,2.1
			C18.1-89.8,16.5-90.1,16.5-90.1z"/>
		<path style="fill:#01013A;" d="M18.1-80.3c0,0-2.9,0.1-3.9-2.2v2.2h-2.6v-20.2h2.6v12.1v0.1c0,0.1,0,0.1,0,0.2v0.1
			c0,0.1,0,0.2,0,0.3c0.1,1.6,0.5,5.6,3.9,5.6c4.3,0,3.9-6,3.9-6s-0.1-4.3-4.6-4.3c0,0-0.5,0-0.9,0.2c0,0,1-2,3-2l0,0
			c0.4,0,4.1,0.3,5,5.4c0.1,0.5,0.1,1.1,0.1,1.6C24.5-85.3,23.5-80.3,18.1-80.3z"/>
	</g>
</g>
<g>
	<g>
		<rect x="24.9" y="21.3" style="fill:#F1F1F1;" width="0.6" height="9.9"/>
		<rect x="74.1" y="24.5" style="fill:#F1F1F1;" width="0.6" height="6.7"/>
		<path style="fill:#F1F1F1;" d="M74.9,22.3c0-0.1-0.1-0.3-0.2-0.4c-0.1-0.1-0.2-0.1-0.4-0.1c-0.1,0-0.2,0-0.3,0.1
			c-0.1,0.1-0.2,0.2-0.2,0.3c0,0.1,0,0.3,0.2,0.4c0.1,0.1,0.2,0.1,0.3,0.1c0.1,0,0.3,0,0.4-0.1C74.8,22.6,74.9,22.4,74.9,22.3z"/>
		<path style="fill:#F1F1F1;" d="M66.6,24.5v9.7h0.6V30h0c0.5,0.9,1.2,1.3,2.2,1.3c0.9,0,1.6-0.3,2.2-1c0.5-0.7,0.8-1.6,0.8-2.7
			c0-1-0.2-1.8-0.7-2.4c-0.5-0.6-1.1-0.9-2-0.9c-0.5,0-1,0.1-1.5,0.4c-0.4,0.3-0.8,0.6-1,1.1h0v-1.4H66.6z M67.8,25.7
			c0.4-0.5,1-0.8,1.8-0.8c0.7,0,1.2,0.2,1.6,0.7c0.4,0.5,0.6,1.2,0.6,2c0,1-0.2,1.7-0.6,2.3c-0.4,0.6-1,0.9-1.7,0.9
			c-0.7,0-1.2-0.2-1.7-0.7c-0.4-0.5-0.6-1.1-0.6-1.7v-0.8C67.2,26.8,67.4,26.2,67.8,25.7z"/>
		<path style="fill:#F1F1F1;" d="M76.8,24.5v6.7h0.6v-3.8c0-0.7,0.2-1.3,0.6-1.7c0.4-0.5,0.9-0.7,1.6-0.7c1.2,0,1.7,0.8,1.7,2.4v3.9
			H82v-4.1c0-0.9-0.2-1.6-0.6-2.1c-0.4-0.5-0.9-0.7-1.7-0.7c-1,0-1.8,0.5-2.3,1.4h0v-1.2H76.8z"/>
		<path style="fill:#F1F1F1;" d="M88.7,25.5L88.7,25.5c-0.5-0.8-1.2-1.2-2.2-1.2c-0.9,0-1.7,0.3-2.2,1c-0.6,0.7-0.8,1.5-0.8,2.6
			c0,1.1,0.3,1.9,0.8,2.5c0.5,0.6,1.2,0.9,2,0.9c1.1,0,1.9-0.5,2.4-1.4h0v0.9c0,1.9-0.9,2.9-2.8,2.9c-0.6,0-1.3-0.2-2-0.6v0.6
			c0.7,0.3,1.3,0.5,2,0.5c1.2,0,2-0.3,2.6-0.9c0.5-0.6,0.8-1.5,0.8-2.8v-6.2h-0.6V25.5z M88.7,28.4c0,0.7-0.2,1.2-0.6,1.7
			c-0.4,0.5-1,0.7-1.7,0.7c-0.7,0-1.2-0.3-1.6-0.8c-0.4-0.5-0.6-1.2-0.6-2.1c0-0.9,0.2-1.6,0.7-2.2c0.4-0.6,1-0.8,1.8-0.8
			c0.6,0,1.2,0.2,1.6,0.6c0.4,0.4,0.6,0.9,0.6,1.5V28.4z"/>
		<path style="fill:#F1F1F1;" d="M34.2,24.5v6.7h0.6v-3.8c0-0.7,0.2-1.3,0.6-1.7c0.4-0.5,0.9-0.7,1.6-0.7c1.2,0,1.7,0.8,1.7,2.4v3.9
			h0.6v-4.1c0-0.9-0.2-1.6-0.6-2.1c-0.4-0.5-0.9-0.7-1.7-0.7c-1,0-1.8,0.5-2.3,1.4h0v-1.2H34.2z"/>
		<path style="fill:#F1F1F1;" d="M27.2,29.4c0,0.5,0.2,1,0.6,1.3c0.4,0.4,0.9,0.5,1.5,0.5c0.5,0,0.9-0.1,1.4-0.4
			c0.4-0.3,0.7-0.6,0.9-1.1h0v1.3h0.6v-4.3c0-0.8-0.2-1.4-0.6-1.9c-0.4-0.4-0.9-0.6-1.6-0.6c-0.4,0-0.8,0.1-1.2,0.2
			c-0.4,0.1-0.8,0.3-1,0.5v0.7c0.7-0.6,1.4-0.9,2.1-0.9c1.1,0,1.6,0.7,1.6,2.1l-2.1,0.3C28,27.6,27.2,28.3,27.2,29.4z M31.6,27.6
			v0.7c0,0.8-0.2,1.4-0.6,1.8c-0.4,0.5-1,0.7-1.6,0.7c-0.5,0-0.8-0.1-1.1-0.4c-0.3-0.3-0.4-0.6-0.4-1c0-0.5,0.1-0.9,0.4-1.1
			c0.3-0.2,0.8-0.4,1.5-0.5L31.6,27.6z"/>
		<path style="fill:#F1F1F1;" d="M46.7,31.2v-9.9h-0.6v4.3h0c-0.4-0.8-1.1-1.2-2.1-1.2c-0.9,0-1.6,0.3-2.2,1
			c-0.6,0.7-0.9,1.5-0.9,2.6c0,1.1,0.3,1.9,0.8,2.5c0.5,0.6,1.2,0.9,2,0.9c0.5,0,1-0.1,1.4-0.4c0.4-0.2,0.7-0.6,1-1h0v1.2H46.7z
			 M45.5,30.1c-0.4,0.5-1,0.7-1.8,0.7c-0.6,0-1.2-0.3-1.6-0.8c-0.4-0.5-0.6-1.2-0.6-2.1c0-0.9,0.2-1.7,0.7-2.2
			c0.5-0.5,1-0.8,1.7-0.8c0.7,0,1.2,0.2,1.6,0.6c0.4,0.4,0.6,1,0.6,1.6v1.2C46.1,29,45.9,29.6,45.5,30.1z"/>
		<path style="fill:#F1F1F1;" d="M56.8,24.9c0.6,0,1.1,0.1,1.6,0.4v-0.7c-0.5-0.2-1-0.3-1.5-0.3c-1,0-1.8,0.3-2.4,1
			c-0.6,0.7-0.9,1.5-0.9,2.6c0,1,0.3,1.8,0.8,2.4c0.6,0.6,1.3,0.9,2.2,0.9c0.7,0,1.3-0.2,1.8-0.5v-0.6c-0.5,0.4-1.1,0.5-1.8,0.5
			c-0.7,0-1.3-0.3-1.8-0.8c-0.4-0.5-0.7-1.2-0.7-2.1c0-0.9,0.2-1.6,0.7-2.2C55.4,25.2,56,24.9,56.8,24.9z"/>
		<path style="fill:#F1F1F1;" d="M59.6,29.4c0,0.5,0.2,1,0.6,1.3c0.4,0.4,0.9,0.5,1.5,0.5c0.5,0,0.9-0.1,1.4-0.4
			c0.4-0.3,0.7-0.6,0.9-1.1h0v1.3h0.6v-4.3c0-0.8-0.2-1.4-0.6-1.9c-0.4-0.4-0.9-0.6-1.6-0.6c-0.4,0-0.8,0.1-1.2,0.2
			c-0.4,0.1-0.8,0.3-1,0.5v0.7c0.7-0.6,1.4-0.9,2.1-0.9c1.1,0,1.6,0.7,1.6,2.1l-2.1,0.3C60.4,27.6,59.6,28.3,59.6,29.4z M64,27.6
			v0.7c0,0.8-0.2,1.4-0.6,1.8c-0.4,0.5-1,0.7-1.6,0.7c-0.5,0-0.8-0.1-1.1-0.4c-0.3-0.3-0.4-0.6-0.4-1c0-0.5,0.1-0.9,0.4-1.1
			c0.3-0.2,0.8-0.4,1.5-0.5L64,27.6z"/>
		<path style="fill:#F1F1F1;" d="M50.2,30.8c-0.2,0-0.5-0.1-0.8-0.2c-0.3-0.1-0.6-0.3-0.8-0.5v0.7c0.4,0.3,1,0.5,1.6,0.5
			c0.7,0,1.3-0.2,1.6-0.5c0.4-0.3,0.6-0.8,0.6-1.3c0-0.4-0.1-0.8-0.4-1.1c-0.3-0.3-0.7-0.6-1.4-0.9c-0.6-0.3-1-0.5-1.1-0.7
			c-0.2-0.2-0.3-0.5-0.3-0.8c0-0.4,0.1-0.7,0.4-0.9c0.3-0.2,0.6-0.3,1.1-0.3c0.5,0,1,0.2,1.5,0.5v-0.7c-0.4-0.2-0.9-0.4-1.5-0.4
			c-0.6,0-1.1,0.2-1.5,0.5c-0.4,0.3-0.6,0.8-0.6,1.3c0,0.4,0.1,0.8,0.4,1.1c0.3,0.3,0.7,0.6,1.3,0.9c0.5,0.2,0.9,0.4,1.1,0.6
			c0.2,0.2,0.3,0.5,0.3,0.8C51.7,30.3,51.2,30.8,50.2,30.8z"/>
	</g>
	<g>
		<path style="fill:#F1F1F1;" d="M77.1,12.1v6.7h1.5V15c0-0.6,0.1-1,0.4-1.3c0.3-0.3,0.6-0.5,1-0.5c0.9,0,1.3,0.6,1.3,1.7v3.9h1.5
			V15c0-0.5,0.1-0.9,0.4-1.3c0.3-0.4,0.6-0.5,1-0.5c0.5,0,0.8,0.2,1,0.5c0.2,0.3,0.3,0.8,0.3,1.4v3.8h1.5v-4.1
			c0-1.8-0.7-2.7-2.2-2.7c-1,0-1.7,0.4-2.2,1.3c-0.1-0.4-0.4-0.7-0.7-1c-0.3-0.2-0.7-0.3-1.2-0.3c-0.9,0-1.6,0.4-2.1,1.2h0v-1H77.1z
			"/>
		<path style="fill:#F1F1F1;" d="M74.6,17.9c0.6-0.6,0.9-1.5,0.9-2.6c0-1.1-0.3-1.9-0.9-2.5c-0.6-0.6-1.4-0.9-2.4-0.9
			c-1.1,0-2,0.3-2.6,1c-0.6,0.6-0.9,1.5-0.9,2.6c0,1,0.3,1.9,0.9,2.5c0.6,0.6,1.4,0.9,2.5,0.9C73.1,18.9,73.9,18.6,74.6,17.9z
			 M70.2,15.4c0-0.7,0.2-1.3,0.5-1.7c0.3-0.4,0.8-0.6,1.4-0.6c0.6,0,1,0.2,1.4,0.6c0.3,0.4,0.5,0.9,0.5,1.7c0,1.5-0.6,2.3-1.8,2.3
			c-0.6,0-1.1-0.2-1.4-0.6C70.4,16.7,70.2,16.1,70.2,15.4z"/>
		<rect x="65.6" y="8.9" style="fill:#F1F1F1;" width="1.5" height="9.9"/>
		<path style="fill:#F1F1F1;" d="M100,14.3c0-0.2,0.1-0.4,0.1-0.7h0c0,0.3,0.1,0.6,0.1,0.7l1.2,4.4h1.6l2-6.7h-1.5l-1.1,4.7
			c0,0.1-0.1,0.4-0.1,0.7h0c0-0.3-0.1-0.6-0.1-0.7l-1.3-4.7h-1.4l-1.4,4.7c-0.1,0.2-0.1,0.4-0.1,0.7h0c0-0.3-0.1-0.5-0.1-0.7
			l-1.2-4.7h-1.6l2,6.7h1.6L100,14.3z"/>
		<path style="fill:#F1F1F1;" d="M63.1,17.9c0.6-0.6,0.9-1.5,0.9-2.6c0-1.1-0.3-1.9-0.9-2.5c-0.6-0.6-1.4-0.9-2.4-0.9
			c-1.1,0-2,0.3-2.6,1c-0.6,0.6-0.9,1.5-0.9,2.6c0,1,0.3,1.9,0.9,2.5c0.6,0.6,1.4,0.9,2.5,0.9C61.6,18.9,62.4,18.6,63.1,17.9z
			 M58.7,15.4c0-0.7,0.2-1.3,0.5-1.7c0.3-0.4,0.8-0.6,1.4-0.6c0.6,0,1,0.2,1.4,0.6c0.3,0.4,0.5,0.9,0.5,1.7c0,1.5-0.6,2.3-1.8,2.3
			c-0.6,0-1.1-0.2-1.4-0.6C58.9,16.7,58.7,16.1,58.7,15.4z"/>
		<path style="fill:#F1F1F1;" d="M94.6,15.1c0-1-0.3-1.8-0.8-2.3c-0.5-0.6-1.2-0.9-2.2-0.9c-0.9,0-1.6,0.3-2.2,1
			c-0.6,0.6-0.9,1.5-0.9,2.6c0,1.1,0.3,1.9,0.8,2.5c0.6,0.6,1.3,0.9,2.4,0.9c1,0,1.7-0.2,2.4-0.6v-1.3c-0.6,0.4-1.3,0.6-2,0.6
			c-1.3,0-1.9-0.6-2-1.9h4.6V15.1z M90,14.7c0.1-0.5,0.3-0.9,0.6-1.2c0.3-0.3,0.7-0.4,1.1-0.4c0.9,0,1.4,0.5,1.4,1.6H90z"/>
		<path style="fill:#F1F1F1;" d="M39.5,12.1v6.7h1.5v-3.4c0-0.6,0.1-1.1,0.4-1.5c0.3-0.4,0.6-0.6,1.1-0.6c0.3,0,0.6,0.1,0.9,0.2V12
			C43.3,12,43.1,12,42.8,12c-0.8,0-1.4,0.5-1.7,1.4h0v-1.3H39.5z"/>
		<path style="fill:#F1F1F1;" d="M32.2,16.9c0,0.6,0.2,1.1,0.6,1.4c0.4,0.4,0.9,0.5,1.6,0.5c0.9,0,1.5-0.4,2-1.1h0v0.9h1.5v-4.2
			c0-1.7-0.9-2.6-2.6-2.6c-0.4,0-0.8,0.1-1.3,0.2c-0.5,0.1-0.8,0.3-1.1,0.4v1.3c0.7-0.5,1.4-0.7,2.2-0.7c0.8,0,1.3,0.5,1.3,1.4
			l-2,0.3C32.9,14.9,32.2,15.6,32.2,16.9z M36.3,15.5v0.6c0,0.5-0.1,0.8-0.4,1.2c-0.3,0.3-0.7,0.5-1.1,0.5c-0.3,0-0.6-0.1-0.8-0.3
			c-0.2-0.2-0.3-0.4-0.3-0.7c0-0.3,0.1-0.6,0.3-0.8c0.2-0.2,0.5-0.3,0.9-0.3L36.3,15.5z"/>
		<path style="fill:#F1F1F1;" d="M24.9,8.9v9.9h1.5v-0.8h0c0.4,0.7,1.1,1,1.9,1c0.9,0,1.7-0.3,2.2-1c0.5-0.7,0.8-1.6,0.8-2.7
			c0-1-0.2-1.8-0.7-2.4c-0.5-0.6-1.2-0.9-2-0.9c-1,0-1.7,0.4-2.2,1.2h0V8.9H24.9z M26.8,13.7c0.3-0.4,0.8-0.6,1.3-0.6
			c0.5,0,0.9,0.2,1.2,0.5c0.3,0.4,0.4,0.9,0.4,1.5c0,0.8-0.2,1.4-0.5,1.8c-0.3,0.4-0.8,0.6-1.3,0.6c-0.5,0-0.8-0.2-1.2-0.5
			c-0.3-0.3-0.5-0.7-0.5-1.2v-0.9C26.4,14.5,26.5,14.1,26.8,13.7z"/>
		<path style="fill:#F1F1F1;" d="M45.3,10.5v1.5h-1.1v1.2h1.1v3.5c0,1.4,0.7,2.1,2,2.1c0.5,0,0.9-0.1,1.2-0.2v-1.2
			c-0.2,0.1-0.4,0.2-0.7,0.2c-0.3,0-0.6-0.1-0.7-0.3c-0.2-0.2-0.2-0.5-0.2-0.9v-3.2h1.6v-1.2h-1.6v-2L45.3,10.5z"/>
		<path style="fill:#F1F1F1;" d="M49.8,8.9v9.9h1.5v-3.8c0-0.5,0.1-0.9,0.4-1.3c0.3-0.3,0.7-0.5,1.1-0.5c0.9,0,1.3,0.6,1.3,1.8v3.8
			h1.5v-4.1c0-0.9-0.2-1.6-0.6-2c-0.4-0.5-0.9-0.7-1.7-0.7c-0.9,0-1.6,0.4-2.1,1.2h0V8.9H49.8z"/>
	</g>
	<g>
		<path style="fill:#F1F1F1;" d="M7.5,15.9c-2.3-0.6,0-3.4,0-3.4c0.6-0.3,1.4-0.3,1.4-0.3c-0.9,1.2,0.2,2.2,0.5,3.2
			C9.9,16.4,7.5,15.9,7.5,15.9z"/>
		<path style="fill:#F1F1F1;" d="M10,30.8c0,0-4.4,0.2-6-3.4v3.4H0V0h4v18.4v0.1c0,0.1,0,0.2,0,0.3v0.1c0,0.1,0,0.3,0,0.5
			c0.1,2.4,0.8,8.5,6,8.5c6.6,0,6-9.2,6-9.2s-0.1-6.6-7-6.6c0,0-0.8,0-1.4,0.3c0,0,1.5-3.1,4.6-3.1l0,0c0.6,0,6.3,0.4,7.6,8.2
			c0.1,0.8,0.2,1.6,0.1,2.4C19.7,23.2,18.2,30.8,10,30.8z"/>
	</g>
</g>
</svg>
